<svg width="1039" height="402" viewBox="0 0 1039 402" fill="none" xmlns="http://www.w3.org/2000/svg">
<path fill-rule="evenodd" clip-rule="evenodd" d="M235.493 88.2439C259.026 88.2439 279.945 89.557 293.019 92.8398C318.513 98.7487 338.778 118.445 344.008 144.051C346.623 156.525 348.584 178.191 348.584 201.827C348.584 225.463 347.276 246.472 344.008 259.603C338.778 285.209 318.513 305.562 293.019 310.814C280.599 313.441 259.026 315.41 235.493 315.41C211.96 315.41 191.041 314.097 177.967 310.814C152.473 305.562 132.208 285.209 126.979 259.603C124.364 247.129 122.403 225.463 122.403 201.827C122.403 178.191 123.71 157.182 126.979 144.051C132.208 118.445 152.473 98.0922 177.967 92.8398C190.388 90.2136 211.96 88.2439 235.493 88.2439ZM249.873 253.695C255.756 254.351 260.332 258.291 262.293 263.543C263.601 264.856 264.908 266.169 266.869 266.169H268.177C277.328 265.513 284.519 264.2 288.441 262.886C291.056 262.23 293.017 259.604 293.017 256.321V255.664C292.364 246.473 286.48 224.807 277.982 199.858C268.177 171.626 258.371 148.647 253.795 144.051C253.468 143.723 252.978 143.394 252.488 143.066C251.997 142.738 251.507 142.41 251.18 142.081C251.18 142.081 250.527 141.425 249.873 141.425C246.604 140.112 241.375 139.455 234.838 139.455C228.301 139.455 223.071 140.112 219.803 141.425C219.476 141.425 219.312 141.589 219.149 141.753C218.985 141.917 218.822 142.081 218.495 142.081C217.188 142.738 216.534 143.394 215.88 144.051C211.304 148.647 201.499 171.626 191.693 199.858C183.195 224.807 177.312 246.473 176.658 255.664V256.321C176.658 258.947 178.619 261.573 181.234 262.886C185.81 264.2 192.347 265.513 201.499 266.169H202.806C204.767 266.169 206.729 265.513 207.382 263.543C209.997 258.947 213.919 255.008 219.803 253.695C223.071 253.038 228.954 252.382 234.838 252.382C240.721 252.382 246.604 253.038 249.873 253.695Z" fill="white"/>
<path fill-rule="evenodd" clip-rule="evenodd" d="M484.554 164.403H506.126V259.603H484.554V242.533C478.016 254.351 466.25 260.916 451.215 260.916C425.72 260.916 406.109 238.594 406.109 211.019C406.109 183.443 426.374 161.777 451.215 161.777C466.25 161.777 478.016 168.343 484.554 180.161V164.403ZM808.79 164.403H830.362V259.603H808.79V242.533C802.253 254.351 790.486 260.916 775.451 260.916C749.957 260.916 730.345 238.594 730.345 211.019C730.345 183.443 750.61 161.777 775.451 161.777C790.486 161.777 802.253 168.343 808.79 180.161V164.403ZM456.444 240.563C472.787 240.563 485.207 228.089 485.207 211.675C485.207 195.261 472.787 182.787 456.444 182.787C440.755 182.787 427.681 195.261 427.681 211.675C427.028 228.089 440.102 240.563 456.444 240.563ZM779.373 240.563C795.716 240.563 808.136 228.089 808.136 211.675C808.136 195.261 795.716 182.787 779.373 182.787C763.684 182.787 750.61 195.261 750.61 211.675C750.61 228.089 763.684 240.563 779.373 240.563ZM538.811 116.475C546.002 116.475 552.539 123.041 552.539 130.263C552.539 138.141 546.002 144.05 538.811 144.05C531.62 144.05 525.083 137.485 525.083 130.263C525.083 123.041 530.966 116.475 538.811 116.475ZM527.698 163.747H549.27V258.947H527.698V163.747ZM617.255 162.434C621.177 162.434 625.753 163.09 628.368 164.403C630.329 165.06 631.636 165.717 632.944 166.373L624.446 184.757C621.831 184.1 618.562 183.443 615.948 183.443C605.488 183.443 593.722 191.979 593.722 209.049V258.947H572.15V163.747H593.722V177.534C596.99 168.343 607.45 162.434 617.255 162.434ZM725.116 235.311C717.925 251.068 701.583 261.573 681.318 261.573C653.209 261.573 631.636 240.563 631.636 212.332C631.636 184.1 652.555 162.434 681.318 162.434C699.621 162.434 715.31 171.626 722.501 185.413L704.197 195.918C700.275 188.696 691.777 183.443 681.318 183.443C664.975 183.443 653.209 195.918 653.209 212.332C653.209 228.089 664.975 240.563 681.318 240.563C692.431 240.563 701.583 235.311 705.505 226.776L725.116 235.311ZM874.16 116.475V258.947H852.588V116.475H874.16ZM917.304 116.475V258.947H895.732V116.475H917.304Z" fill="white"/>
</svg>
