<?xml version="1.0" encoding="utf-8"?>
<!-- Generator: Adobe Illustrator 27.8.1, SVG Export Plug-In . SVG Version: 6.00 Build 0)  -->
<svg version="1.1" id="Calque_1" xmlns="http://www.w3.org/2000/svg" xmlns:xlink="http://www.w3.org/1999/xlink" x="0px" y="0px"
	 viewBox="0 0 773 279" style="enable-background:new 0 0 773 279;" xml:space="preserve">
<style type="text/css">
	.st0{fill:#FFFFFF;filter:url(#Adobe_OpacityMaskFilter);}
	.st1{mask:url(#mask0_226_42_00000051377515822167142380000016154583645254399366_);}
	.st2{fill:#FFFFFF;}
</style>
<defs>
	<filter id="Adobe_OpacityMaskFilter" filterUnits="userSpaceOnUse" x="0" y="0" width="768.6" height="278.8">
		<feColorMatrix  type="matrix" values="1 0 0 0 0  0 1 0 0 0  0 0 1 0 0  0 0 0 1 0"/>
	</filter>
</defs>
<mask maskUnits="userSpaceOnUse" x="0" y="0" width="768.6" height="278.8" id="mask0_226_42_00000051377515822167142380000016154583645254399366_">
	<path class="st0" d="M768.6,0H0v278.8h768.6V0z"/>
</mask>
<g class="st1">
	<g>
		<path class="st2" d="M181.2,126.9h56.3c0,0,2.2-8.5-7.8-21.1c-19.8-20.4-42-6.9-42-6.9c-10.9,5.8-24.9,29.8-16.7,64.2
			c10.2,34.5,49.6,41.6,74.1,33.6c16.2-5.3,25.5-17,30-24.3c1.4-5.9,2.5-11.8,3.1-17.7h-96.9V126.9z"/>
		<path class="st2" d="M132,0.2C72.7,3.4,19.7,44.4,4.3,105.1c-18.9,74.6,26.2,150.5,100.9,169.5c53,13.4,106.8-5.4,140.2-44.3
			c-14.7,3.5-31.9,3.7-50.5-2.7c-62.5-21.6-73.9-79.4-58.4-119.8c15.6-40.5,70-59.3,107.8-32.2c32.4,23.2,34.2,64.6,34,76
			c6-66.9-37.2-130.3-104.5-147.3C159.9,0.7,145.7-0.5,132,0.2z M64,123.2c9.9,0,17.9,8,17.9,17.9c0,9.9-8,17.9-17.9,17.9
			c-9.9,0-18.1-8-18.1-17.9C45.9,131.1,54.1,123.2,64,123.2z"/>
		<path class="st2" d="M695.2,63c-11.1,0.4-22.4,2.3-31.8,5.8c-19.5,8-29.3,27-29.3,46.9h35.3c-0.9-10.2,6.8-19.5,13.9-22.1
			c3.1-1.3,7.4-2.2,11.9-2.2c8.9-0.4,17.9,1.8,24.2,7.6c4,4,5.1,9.2,3.8,15c-2.2,9.3-12.4,12.5-28,14.8c-5.3,0.9-11.5,1.4-18.1,2.2
			c-18.6,2.2-45.2,11.4-51.4,38.5c-2.2,10.7-0.5,30.3,15.9,43.1c11.1,8.4,26.7,12.3,38.7,11.8c5.3,0,10.8-0.5,15.2-1.3
			c12.4-2.7,22-8.3,31.3-15.9c0.5,2.2,2.7,10.5,4.5,12.7h37.4c-5.8-11.5-4.9-28.2-4.9-37.6v-47.8c-0.4-12.4-0.5-24.9-3.1-36.4
			c-2.7-11.5-12.8-30.7-45.6-34.7C708.7,63,701.9,63,695.2,63z M725.4,142.8c0,3.5,0.4,28.9-1.8,33.8c-4,10.6-15.1,16.8-28.4,18.1
			c-2.6,0.4-5.6,0.9-8.7,0.4c-8.9,0-16.3-4.3-19.5-11c-3.6-6.7-1.3-13.4,0.9-17.4c5.3-9.3,14.6-11,27.5-13.6c4-0.4,8.3-1.4,13.2-2.7
			C718.4,148.2,720.5,146.4,725.4,142.8z"/>
		<path class="st2" d="M435.7,84.8c-15.5-17.3-39.5-24.9-63.9-21.3c-22.2,3.6-38.2,16-49.3,33.7c-5.8,10.2-9.8,21.7-11.5,32.8
			c-3.6,27.1,4,72.3,51.5,90c22.2,8.4,50.1,5.3,71.4-10.2c12-8.9,24-28.8,24.9-41.3h-39.5c-1.3,5.3-4.4,12.4-11.5,17.7
			c-16,11.5-34.2,4-42.2-1.8c-12-8.9-16-23.5-16.4-44.4c0-11.1,3.1-28.8,12.4-37.3c10.2-8.4,22.6-10.6,34.6-7.1
			c12.9,4,22.6,18.2,21.8,31H362v28h96.7c0.9-10.2-0.9-20-2.7-29.3C453,111.8,444.6,95,435.7,84.8z"/>
		<path class="st2" d="M550.2,126c-12-2.2-25.7-2.7-32.8-10.6c-3.1-3.6-3.1-9.8-1.3-13.3c4.9-9.8,16.9-12.9,28.4-12
			c10.2,0,19.5,5.3,23.5,14.2c1.8,3.6,2.2,7.5,2.7,11.5h32.8c0.4-12.9-4.9-26.2-12.9-34.6c-10.2-10.6-34.2-21.7-63.9-17.3
			c-16,2.2-37.3,11.5-44.4,32.4c-6.2,19.5,0,37.3,12,46.6c15.1,11.5,43.5,14.6,55,17.3c13.3,2.7,20,4.4,22.2,12
			c1.3,4.9,0.9,10.7-2.2,14.7c-8.4,11.1-25.7,12-39.5,8c-11.5-3.5-16.4-12.9-18.6-25.3h-34.6c0,11.5,3.5,19.5,9.3,28.9
			c7.5,12,20.9,21.7,40.4,24.8c21.3,3.6,43,0.9,55.9-6.2c7.5-4.5,13.3-10.2,18.2-16.4c7.1-8.9,13.3-31.1,2.2-50.6
			C592.8,133.1,570.6,129.6,550.2,126z"/>
	</g>
</g>
</svg>
