<?xml version="1.0" encoding="utf-8"?>
<!-- Generator: Adobe Illustrator 27.8.1, SVG Export Plug-In . SVG Version: 6.00 Build 0)  -->
<svg version="1.1" id="Calque_1" xmlns="http://www.w3.org/2000/svg" xmlns:xlink="http://www.w3.org/1999/xlink" x="0px" y="0px"
	 viewBox="0 0 783 261" style="enable-background:new 0 0 783 261;" xml:space="preserve">
<style type="text/css">
	.st0{fill:#FFFFFF;}
</style>
<g>
	<path class="st0" d="M333.2,133.8c0,36.2-28.8,62.9-64.1,62.9c-35.3,0-64.1-26.7-64.1-62.9c0-36.5,28.8-62.9,64.1-62.9
		C304.4,70.9,333.2,97.4,333.2,133.8z M305.2,133.8c0-22.6-16.7-38.1-36-38.1c-19.3,0-36,15.5-36,38.1c0,22.4,16.7,38.1,36,38.1
		C288.5,172,305.2,156.2,305.2,133.8z"/>
	<path class="st0" d="M471.4,133.8c0,36.2-28.8,62.9-64,62.9c-35.3,0-64.1-26.7-64.1-62.9c0-36.5,28.8-62.9,64.1-62.9
		C442.6,70.9,471.4,97.4,471.4,133.8z M443.3,133.8c0-22.6-16.7-38.1-36-38.1c-19.3,0-36,15.5-36,38.1c0,22.4,16.7,38.1,36,38.1
		C426.7,172,443.3,156.2,443.3,133.8z"/>
	<path class="st0" d="M603.8,74.7v113c0,46.5-27.8,65.4-60.7,65.4c-30.9,0-49.6-20.4-56.6-37.1l24.4-10c4.3,10.2,15,22.3,32.2,22.3
		c21,0,34.1-12.8,34.1-36.9v-9h-1c-6.3,7.6-18.4,14.3-33.6,14.3c-31.9,0-61.2-27.4-61.2-62.7c0-35.5,29.2-63.1,61.2-63.1
		c15.2,0,27.3,6.7,33.6,14.1h1V74.8L603.8,74.7L603.8,74.7z M579.2,134.1c0-22.2-15-38.4-34.1-38.4c-19.3,0-35.6,16.2-35.6,38.4
		c0,21.9,16.2,37.9,35.6,37.9C564.2,172,579.2,156,579.2,134.1z"/>
	<path class="st0" d="M647.7,8.5v184.4h-27.3V8.5H647.7z"/>
	<path class="st0" d="M754.3,154.6l21.8,14.3c-7,10.2-23.9,27.9-53.2,27.9c-36.3,0-63.4-27.6-63.4-62.9c0-37.4,27.3-62.9,60.2-62.9
		c33.1,0,49.3,26,54.6,40l2.9,7.1l-85.4,34.8c6.5,12.6,16.7,19.1,30.9,19.1C737.1,172,747,165.1,754.3,154.6z M687.3,131.9
		l57.1-23.3c-3.1-7.9-12.6-13.3-23.7-13.3C706.4,95.2,686.6,107.6,687.3,131.9z"/>
	<path class="st0" d="M101.6,117.5V90.8h91.3c0.9,4.7,1.4,10.2,1.4,16.1c0,20-5.6,44.8-23.5,62.4c-17.4,17.9-39.7,27.4-69.1,27.4
		C47,196.7,1,152.9,1,99C1,45.2,47,1.3,101.6,1.3c30.2,0,51.8,11.7,67.9,26.9l-19.1,18.8C138.8,36.4,123.1,28,101.6,28
		c-39.9,0-71.1,31.7-71.1,71c0,39.3,31.2,71,71.1,71c25.9,0,40.6-10.2,50.1-19.5c7.7-7.5,12.7-18.3,14.7-33.1L101.6,117.5z"/>
</g>
</svg>
