<?xml version="1.0" encoding="utf-8"?>
<!-- Generator: Adobe Illustrator 27.8.1, SVG Export Plug-In . SVG Version: 6.00 Build 0)  -->
<svg version="1.1" id="Calque_1" xmlns="http://www.w3.org/2000/svg" xmlns:xlink="http://www.w3.org/1999/xlink" x="0px" y="0px"
	 viewBox="0 0 778 180" style="enable-background:new 0 0 778 180;" xml:space="preserve">
<style type="text/css">
	.st0{clip-path:url(#SVGID_00000129920626778018486630000009297344999274156933_);}
	.st1{fill:#FFFFFF;filter:url(#Adobe_OpacityMaskFilter);}
	.st2{mask:url(#mask0_226_30_00000117639648091583768910000007663833776204958622_);}
	.st3{fill:#FFFFFF;}
</style>
<g>
	<defs>
		<rect id="SVGID_1_" width="778" height="180"/>
	</defs>
	<clipPath id="SVGID_00000090277806010347280700000018435045123084080568_">
		<use xlink:href="#SVGID_1_"  style="overflow:visible;"/>
	</clipPath>
	<g style="clip-path:url(#SVGID_00000090277806010347280700000018435045123084080568_);">
		<defs>
			<filter id="Adobe_OpacityMaskFilter" filterUnits="userSpaceOnUse" x="0" y="0" width="778" height="180">
				<feColorMatrix  type="matrix" values="1 0 0 0 0  0 1 0 0 0  0 0 1 0 0  0 0 0 1 0"/>
			</filter>
		</defs>
		
			<mask maskUnits="userSpaceOnUse" x="0" y="0" width="778" height="180" id="mask0_226_30_00000117639648091583768910000007663833776204958622_">
			<path class="st1" d="M778,0H0v180h778V0z"/>
		</mask>
		<g class="st2">
			<g>
				<path class="st3" d="M153.2,112.9c7.7,0,10-1.9,10-5.8c0-4.7-6.3-6-17.7-8.4c-12.3-2.5-30-7.9-30-25c0-19.2,15.1-28.1,36.6-28.1
					c13.2,0,26.9,4.1,36,10.4c0.6,0.4,0.7,1.1,0.4,1.7l-9.1,16.8c-0.4,0.7-1.2,0.9-1.9,0.5c-6.2-4-16.6-8.3-25.6-8.3
					c-7.2,0-9.5,1.2-9.5,5.5c0,3.5,3.2,5.3,11.7,7c15.8,3.3,35.9,7.2,35.9,27.1c0,17.2-13.8,28.5-35.4,28.5
					c-16.9,0-31.5-4.3-40.9-9.6c-0.6-0.3-0.8-1.1-0.5-1.7l7.9-18.6c0.3-0.7,1.2-1,1.9-0.6C130.3,108.6,143.8,113,153.2,112.9
					L153.2,112.9z"/>
				<path class="st3" d="M286.1,47.3c0.9,0.1,1.5,1,1.2,1.8l-35.6,92.2c-10.8,27.9-21.5,37.1-37.5,38.6c-0.6,0.1-1.1-0.3-1.3-0.8
					l-8.1-17.1c-0.3-0.7,0-1.6,0.8-1.8c10.9-3.7,15.5-9.7,18.7-16.9l5.2-12.7c0.1-0.3,0.1-0.7,0-1l-34.4-80.4
					c-0.4-0.9,0.2-1.8,1.1-1.8c7.9-0.5,16-1.1,24.6-2.2c0.6-0.1,1.2,0.3,1.4,0.9l19,51.8c0.4,1.2,2.1,1.2,2.5,0l17.9-51.7
					c0.2-0.6,0.8-1,1.4-0.9C270.4,46.1,278.2,46.7,286.1,47.3L286.1,47.3z"/>
				<path class="st3" d="M397.1,0c-49.6,0-89.8,40.3-89.8,90c0,49.7,40.2,90,89.8,90s89.8-40.3,89.8-90C486.9,40.3,446.7,0,397.1,0z
					 M439.6,133.7c-0.1,0.8-0.7,1.3-1.5,1.2c-7.7-1.1-15.4-1.8-23.4-2.2c-0.7,0-1.3-0.7-1.3-1.4c0.7-12.8,1.5-25.7,1.5-38.6
					c0-15.1-6.7-22.9-18.4-22.9c-13.5,0-18.4,9.7-18.4,27.4v35.1c0,0.7-0.6,1.3-1.3,1.3h-23.1c-0.7,0-1.3-0.6-1.3-1.3V48.6
					c0-0.7,0.6-1.3,1.2-1.3c7.8-0.5,15.2-1.1,23-2.2c0.8-0.1,1.5,0.5,1.5,1.3v4.8c0,1.1,1.2,1.7,2.1,1.1c6.5-4.5,15.2-6.7,23-6.7
					c26.6,0,38.7,18.5,38.7,43.2C441.9,102.5,440.8,119.6,439.6,133.7L439.6,133.7z"/>
				<path class="st3" d="M604.9,8.7L560,82.9c-0.1,0.2-0.2,0.5-0.2,0.7v48.8c0,0.7-0.6,1.3-1.3,1.3h-24.2c-0.7,0-1.3-0.6-1.3-1.3
					V83.8c0-0.2-0.1-0.5-0.2-0.7l-45-74.3c-0.5-0.9,0.1-2,1.1-2c8.7,0,17.5-0.8,26.2-2.3c0.5-0.1,1.1,0.1,1.4,0.6l28.7,48.1
					c0.5,0.9,1.8,0.9,2.3,0L576.8,5c0.3-0.5,0.8-0.7,1.3-0.6c8.6,1.4,17.2,2,25.8,2.3C604.9,6.7,605.5,7.8,604.9,8.7L604.9,8.7z"/>
				<path class="st3" d="M629.6,45.6c27.2,0,47.2,19,47.2,44.5c0,25.5-19.6,44.6-46.6,44.6c-27,0-47.5-17.6-47.5-44.6
					C582.6,63.7,603.8,45.6,629.6,45.6z M629.8,70.1c-11.9,0-20.2,8.3-20.2,20.2c0,11.9,8.1,20,20.3,20c12.3,0,19.8-6.9,19.8-20.2
					C649.8,77.4,641.9,70.1,629.8,70.1z"/>
				<path class="st3" d="M752.2,133.6v-4.9c0-1.1-1.2-1.7-2.1-1.1c-6.3,4.6-14.7,7.1-22.1,7.1c-27.2,0-39.6-18.5-39.6-43.2
					c0-13.6,1.2-31.2,2.3-45.4c0.1-0.8,0.7-1.3,1.5-1.2c7.7,1.1,15.4,1.8,23.4,2.2c0.7,0,1.3,0.6,1.3,1.4
					c-0.7,12.9-1.5,26.2-1.5,39.1c0,15.1,6,22.9,18.4,22.9c13.5,0,18.4-10.2,18.4-28V47.5c0-0.7,0.6-1.3,1.3-1.3h23.1
					c0.7,0,1.3,0.6,1.3,1.3v83.7c0,0.7-0.6,1.3-1.2,1.3c-7.8,0.5-15.2,1.3-23,2.3C753,135,752.2,134.4,752.2,133.6L752.2,133.6z"/>
				<path class="st3" d="M0,132.3V6.7c0-0.7,0.5-1.3,1.2-1.3c25.1-2,32.1-2.4,42-2.4c30.4,0,60.6,14.6,60.6,52.3
					c0,34.2-24.6,53-53.9,53c-8.5,0-14.9-0.3-21.6-0.8c-0.8-0.1-1.4,0.6-1.4,1.3v23.5c0,0.7-0.6,1.3-1.3,1.3H1.3
					C0.6,133.7,0,133.1,0,132.3L0,132.3z M49.7,81.9c13.5,0,25.5-7,25.5-26.6c0-16-10.5-25.7-28.4-25.7c-4.8,0-11.6,0.2-18.6,0.5
					c-0.7,0-1.3,0.6-1.3,1.3v48.2c0,0.7,0.5,1.3,1.2,1.3C34.8,81.6,41.4,81.9,49.7,81.9L49.7,81.9z"/>
			</g>
		</g>
	</g>
</g>
</svg>
