<?xml version="1.0" encoding="utf-8"?>
<!-- Generator: Adobe Illustrator 27.8.1, SVG Export Plug-In . SVG Version: 6.00 Build 0)  -->
<svg version="1.1" id="Calque_1" xmlns="http://www.w3.org/2000/svg" xmlns:xlink="http://www.w3.org/1999/xlink" x="0px" y="0px"
	 viewBox="0 0 847 184" style="enable-background:new 0 0 847 184;" xml:space="preserve">
<style type="text/css">
	.st0{fill:#FFFFFF;}
</style>
<g>
	<path class="st0" d="M51.7,134.4H147c3.7,0,6.7-3,6.7-6.6v-5.4c0-3.6-3-6.6-6.7-6.6H51.7c-3.7,0-6.7,3-6.7,6.6v5.4
		C45,131.4,48,134.4,51.7,134.4z"/>
	<path class="st0" d="M79.5,102.9H147c3.7,0,6.7-3,6.7-6.6v-5.4c0-3.6-3-6.6-6.7-6.6H79.5c-3.7,0-6.7,3-6.7,6.6v5.4
		C72.8,100,75.8,102.9,79.5,102.9z"/>
	<path class="st0" d="M106.1,70.3h41c3.7,0,6.7-3,6.7-6.6v-5.4c0-3.6-3-6.6-6.7-6.6h-41c-3.7,0-6.7,3-6.7,6.6v5.4
		C99.4,67.3,102.4,70.3,106.1,70.3z"/>
	<path class="st0" d="M213.3,106.6h-8.2v26h-20.8V49.8h31.3c18,0,30.6,11.1,30.6,29c0,11.4-5.3,19.7-13.9,24.1l18.8,29.6h-22
		L213.3,106.6z M213.6,89.1c6.5,0,11.6-2.1,11.6-10.3s-5.1-10.3-11.6-10.3h-8.5v20.5L213.6,89.1L213.6,89.1z"/>
	<path class="st0" d="M258,49.8h20.8v82.7H258V49.8z"/>
	<path class="st0" d="M304.9,68.6h-18.7V49.8h58.2v18.8h-18.7v64h-20.8L304.9,68.6L304.9,68.6z"/>
	<path class="st0" d="M351.8,49.8h22.8l23.5,56.6l23.5-56.6h22.9v82.7h-20.8V89h-0.6l-17.4,43.6h-15.2L373.2,89h-0.6v43.6h-20.8
		L351.8,49.8L351.8,49.8z"/>
	<path class="st0" d="M453.8,91.2c0-25.3,19.7-42.5,43.7-42.5c24,0,43.6,17.2,43.6,42.5c0,25.3-19.7,42.5-43.6,42.5
		C473.6,133.7,453.8,116.5,453.8,91.2z M497.5,114.3c12.3,0,22.2-9,22.2-23.1c0-14.1-9.9-23.1-22.2-23.1c-12.3,0-22.3,9-22.3,23.1
		C475.2,105.3,485.1,114.3,497.5,114.3z"/>
	<path class="st0" d="M550.4,49.8h34.4c22,0,40.1,17.2,40.1,41.4s-18.1,41.4-40.1,41.4h-34.4V49.8z M584.1,113.2
		c12.8,0,19-9.2,19-22c0-12.8-6.3-22-19-22h-12.9v44H584.1z"/>
	<path class="st0" d="M632.9,49.8h20.4v17.4h-20.4V49.8z M632.9,72h20.4v60.6h-20.4V72z"/>
	<path class="st0" d="M660.8,102.3c0-21.2,15.4-31.5,29.1-31.5c10.8,0,16.5,5.8,17,6.9h0.4V72h20.4v60.6h-20.4v-5.7h-0.4
		c-0.5,1-6.3,6.9-17,6.9C676.2,133.7,660.8,123.5,660.8,102.3L660.8,102.3z M694.2,115.9c7.3,0,13.5-5,13.5-13.6
		c0-8.6-6.1-13.6-13.5-13.6c-7.3,0-13.4,5.1-13.4,13.6C680.9,110.8,687.1,115.9,694.2,115.9z"/>
	<path class="st0" d="M750.8,153.3v-16c3,1.9,9.1,2.8,13.9,2.8c11.5,0,16.8-5.5,16.8-11.3v-2h-0.7c-0.5,1-6,6.9-16.4,6.9
		c-13.8,0-29.3-10.4-29.3-31.5c0-21.1,15.5-31.5,29.3-31.5c10.4,0,15.9,5.8,16.4,6.9h0.7V72H802v55.1c0,24.6-19.7,29.7-33.3,29.7
		C762.4,156.8,755,156,750.8,153.3L750.8,153.3z M768.7,115.9c7.3,0,13.4-5,13.4-13.6c0-8.6-6-13.6-13.4-13.6
		c-7.3,0-13.5,5.1-13.5,13.6C755.2,110.8,761.5,115.9,768.7,115.9z"/>
</g>
</svg>
